<?xml version="1.0" encoding="utf-8"?>
<!-- Generator: Adobe Illustrator 15.0.0, SVG Export Plug-In . SVG Version: 6.00 Build 0)  -->
<!DOCTYPE svg PUBLIC "-//W3C//DTD SVG 1.1//EN" "http://www.w3.org/Graphics/SVG/1.1/DTD/svg11.dtd">
<svg version="1.1" id="Layer_1" xmlns="http://www.w3.org/2000/svg" xmlns:xlink="http://www.w3.org/1999/xlink" x="0px" y="0px"
	 width="86px" height="86px" viewBox="0 0 86 86" enable-background="new 0 0 86 86" xml:space="preserve">
<g>
	<g>
		<path fill="#2DADFF" d="M71.02,58.396c2.189,0.623,4.07,1.556,5.627,2.813c-11.471,5.975-22.016,12.872-34.325,18.006
			C31.437,73.219,20.396,67.378,9.685,61.209c1.58-1.607,4.77-1.607,6.19-3.376c-4.776-3.623-12.078-1.306-14.631,3.376
			c2.277,3.188,6.078,4.836,9.566,6.752c7.202,3.958,13.916,7.27,21.383,11.254c3.335,1.78,8.412,5.766,11.254,5.628
			c2.163-0.104,8.14-4.27,10.692-5.628c8.119-4.326,14.191-7.404,21.383-11.254c3.403-1.822,7.729-3.764,9.564-7.314
			C81.643,56.73,74.928,53.027,71.02,58.396z M42.884,47.143c10.914-5.47,21.388-10.772,32.638-16.883
			c3.221-1.749,9.724-4.548,9.564-7.315C84.88,19.309,68.993,13.87,64.83,11.691C57.012,7.598,47.111-0.868,41.196,2.125
			C31.668,6.946,20.189,12.602,10.81,17.318c-3.381,1.7-7.937,2.258-9.003,6.19c5.485,5.552,13.245,8.047,20.258,11.816
			C29.074,39.092,35.824,43.669,42.884,47.143z M43.447,6.064c11.437,5.444,22.239,11.524,33.763,16.881
			C66.521,29.7,54.773,35.397,43.447,41.514C31.785,35.919,21.288,29.161,9.685,23.508C20.5,17.255,32.631,12.317,43.447,6.064z
			 M71.02,38.701c0.84,2.538,4.447,2.305,5.627,4.501C64.973,48.783,54.15,55.221,42.884,61.209
			c-10.896-6.361-22.52-11.993-33.2-18.569c1.567-1.809,4.926-1.826,6.19-3.938c-4.784-4.046-11.6-0.105-14.631,3.938
			c2.236,3.264,6.193,4.912,9.566,6.752c7.382,4.025,13.705,7.035,21.383,11.254c2.991,1.645,7.933,5.627,10.692,5.627
			c2.853,0,7.478-3.888,10.692-5.627c11.324-6.133,22.335-10.849,31.51-17.443C82.516,38.438,75.912,35.001,71.02,38.701z"/>
	</g>
</g>
</svg>
