<?xml version="1.0" encoding="utf-8"?>
<!-- Generator: Adobe Illustrator 15.0.0, SVG Export Plug-In . SVG Version: 6.00 Build 0)  -->
<!DOCTYPE svg PUBLIC "-//W3C//DTD SVG 1.1//EN" "http://www.w3.org/Graphics/SVG/1.1/DTD/svg11.dtd">
<svg version="1.1" id="Layer_1" xmlns="http://www.w3.org/2000/svg" xmlns:xlink="http://www.w3.org/1999/xlink" x="0px" y="0px"
	 width="86px" height="86px" viewBox="0 0 86 86" enable-background="new 0 0 86 86" xml:space="preserve">
<g>
	<g>
		<path fill="#2DADFF" d="M68.646,27.208H39.006l-5.896-7.013c-0.199-0.239-0.496-0.374-0.805-0.363H8.391
			c-3.651,0.025-6.596,2.997-6.596,6.65v43.143c0.004,3.666,2.973,6.639,6.637,6.643h60.214c3.666-0.004,6.635-2.977,6.639-6.643
			V33.853C75.279,30.185,72.313,27.213,68.646,27.208z M77.354,18.614H47.705L41.809,11.6c-0.198-0.238-0.496-0.372-0.806-0.363
			H17.098c-3.313,0.006-6.114,2.456-6.564,5.741h21.804c1.144-0.003,2.229,0.502,2.964,1.379l5.034,5.99h28.313
			c5.236,0.009,9.479,4.256,9.488,9.498v33.764c3.32-0.412,5.813-3.235,5.815-6.586V25.25
			C83.943,21.601,80.999,18.641,77.354,18.614z"/>
	</g>
</g>
</svg>
