<?xml version="1.0" encoding="utf-8"?>
<!-- Generator: Adobe Illustrator 15.0.0, SVG Export Plug-In . SVG Version: 6.00 Build 0)  -->
<!DOCTYPE svg PUBLIC "-//W3C//DTD SVG 1.1//EN" "http://www.w3.org/Graphics/SVG/1.1/DTD/svg11.dtd">
<svg version="1.1" id="Layer_1" xmlns="http://www.w3.org/2000/svg" xmlns:xlink="http://www.w3.org/1999/xlink" x="0px" y="0px"
	 width="86px" height="86px" viewBox="0 0 86 86" enable-background="new 0 0 86 86" xml:space="preserve">
<path fill="#2DADFF" d="M5.497,2.93c3.066,0.754,3.293,4.35,6.005,5.459c2.76-1.062,4.154-3.491,6.006-5.459
	c3.04,0.964,3.963,4.044,6.552,5.459c2.93,0.486,3.825-5.366,6.005-5.459c2.575-0.111,3.993,5.37,6.006,5.459
	c3.41,0.15,3.196-4.826,7.098-5.459c1.591,2.047,3.412,3.868,5.46,5.459c2.959,0.449,3.859-5.369,6.005-5.459
	c2.396-0.103,4.242,5.382,6.007,5.459c2.678,0.118,3.641-3.743,6.006-5.459c3.039,0.964,3.963,4.044,6.553,5.459
	c2.726-1.277,3.414-4.593,6.552-5.459c0,27.117,0,54.232,0,81.349c-3.067-0.756-3.293-4.352-6.006-5.459
	c-2.761,1.063-4.154,3.49-6.007,5.459c-3.04-0.963-3.963-4.043-6.553-5.459c-2.957-0.448-3.857,5.367-6.004,5.459
	c-2.395,0.104-4.242-5.381-6.007-5.459c-2.679-0.118-3.64,3.742-6.006,5.459c-3.04-0.963-3.963-4.043-6.552-5.459
	c-2.959-0.448-3.859,5.367-6.005,5.459c-2.395,0.104-4.242-5.381-6.005-5.459c-2.679-0.118-3.64,3.742-6.006,5.459
	c-3.04-0.963-3.962-4.043-6.551-5.459c-2.727,1.277-3.415,4.594-6.552,5.459C5.497,57.162,5.497,30.047,5.497,2.93z M18.6,23.131
	c-1.259,1.651-0.192,5.631-0.546,8.188c16.379,0,32.758,0,49.137,0c0-2.729,0-5.459,0-8.188
	C50.995,23.131,34.797,23.131,18.6,23.131z M18.6,39.51c-1.259,1.651-0.192,5.631-0.546,8.189c16.379,0,32.758,0,49.137,0
	c0-2.729,0-5.46,0-8.189C50.995,39.51,34.797,39.51,18.6,39.51z M18.6,55.889c-1.259,1.651-0.192,5.631-0.546,8.189
	c16.379,0,32.758,0,49.137,0c0-2.73,0-5.459,0-8.189C50.995,55.889,34.797,55.889,18.6,55.889z"/>
</svg>
