<?xml version="1.0" encoding="utf-8"?>
<!-- Generator: Adobe Illustrator 15.0.0, SVG Export Plug-In . SVG Version: 6.00 Build 0)  -->
<!DOCTYPE svg PUBLIC "-//W3C//DTD SVG 1.1//EN" "http://www.w3.org/Graphics/SVG/1.1/DTD/svg11.dtd">
<svg version="1.1" id="Layer_1" xmlns="http://www.w3.org/2000/svg" xmlns:xlink="http://www.w3.org/1999/xlink" x="0px" y="0px"
	 width="86px" height="86px" viewBox="0 0 86 86" enable-background="new 0 0 86 86" xml:space="preserve">
<g>
	<g>
		<path fill="#2DADFF" d="M41.235,1.911c-10.076,1.953-8.111,16.814,1.627,16.814C54.418,18.725,53.516-0.471,41.235,1.911z
			 M64.018,11.132c-5.25,1.176-8.924,4.509-7.595,11.932c0.647,3.623,5.214,7.172,7.054,7.594
			C79.954,34.437,80.857,7.355,64.018,11.132z M18.455,12.758c-9.646,1.764-6.665,15.023,1.085,15.188
			C29.755,28.162,29.677,10.708,18.455,12.758z M8.148,38.251c-8.624,1.063-6.07,11.718-0.542,12.476
			C16.506,51.943,18.197,37.013,8.148,38.251z M83.002,43.134c-0.422-2.975-2.624-5.42-7.053-4.882
			c-4.098,0.498-5.93,1.864-5.965,5.966C69.896,53.756,84.331,52.545,83.002,43.134z M16.828,62.66
			c-8.062,2.111-5.177,12.88,2.169,12.475C26.758,74.707,26.636,60.09,16.828,62.66z M65.645,62.66
			c-8.477,1.99-5.119,13.027,2.168,12.475C75.541,74.548,75.223,60.409,65.645,62.66z M40.15,71.881
			c-6.377,2.403-3.947,12.15,2.17,12.475C52.227,84.884,51.039,67.775,40.15,71.881z"/>
	</g>
</g>
</svg>
